<svg xmlns="http://www.w3.org/2000/svg" width="108.371" height="25" viewBox="0 0 108.371 25">
  <g id="Grupo_5326" data-name="Grupo 5326" transform="translate(-65.954 -17)">
    <path id="Caminho_1202" data-name="Caminho 1202" d="M312.361,1152.809v1.208l3.576,1.661-4.756,18.078-5.419-19.625,4.276-.113v-1.208H297.061v1.132l1.659,1.171,6.009,21.776h7.115l5.456-20.909,1.585-2v-1.17Z" transform="translate(-165.685 -1135.293)" fill="#1b406d"/>
    <path id="Caminho_1203" data-name="Caminho 1203" d="M84.636,1171.879q-.848,2.584-2.728,2.583a2.114,2.114,0,0,1-1.641-.962,8.4,8.4,0,0,1-1.29-2.621,23.379,23.379,0,0,1-.848-3.865,33.077,33.077,0,0,1-.314-4.657,30.511,30.511,0,0,1,.314-4.789,13.715,13.715,0,0,1,.811-3.092,4.02,4.02,0,0,1,1.143-1.659,2.149,2.149,0,0,1,1.309-.49,2.2,2.2,0,0,1,1.714.905,7.7,7.7,0,0,1,1.29,2.546,20.926,20.926,0,0,1,.811,3.883,40.373,40.373,0,0,1,.276,4.921,24.463,24.463,0,0,1-.848,7.3m-13.345-3.016a10.758,10.758,0,0,0,2.138,3.827,9.36,9.36,0,0,0,3.392,2.432,11.362,11.362,0,0,0,4.5.849,12.356,12.356,0,0,0,5.014-.943,9.612,9.612,0,0,0,3.557-2.64,11.394,11.394,0,0,0,2.138-4.091,18.51,18.51,0,0,0,.719-5.335,16.92,16.92,0,0,0-.627-4.677,10.522,10.522,0,0,0-1.954-3.808,9.284,9.284,0,0,0-3.392-2.564,11.931,11.931,0,0,0-4.977-.943,12.1,12.1,0,0,0-4.461.811,9.659,9.659,0,0,0-3.576,2.432,11.335,11.335,0,0,0-2.359,4.035,16.8,16.8,0,0,0-.848,5.58,16.064,16.064,0,0,0,.737,5.035" transform="translate(-4.599 -1133.971)" fill="#01aae5"/>
    <path id="Caminho_1204" data-name="Caminho 1204" d="M390.456,1158.286a10.509,10.509,0,0,0-1.955-3.808,9.276,9.276,0,0,0-3.391-2.564,11.932,11.932,0,0,0-4.977-.943,12.1,12.1,0,0,0-4.461.811,9.66,9.66,0,0,0-3.576,2.432,11.339,11.339,0,0,0-2.359,4.035,16.817,16.817,0,0,0-.848,5.58,16.056,16.056,0,0,0,.737,5.035,10.749,10.749,0,0,0,2.138,3.827,9.355,9.355,0,0,0,3.392,2.432,11.359,11.359,0,0,0,4.5.849,12.356,12.356,0,0,0,5.014-.943,9.612,9.612,0,0,0,3.557-2.64,11.388,11.388,0,0,0,2.138-4.091,18.487,18.487,0,0,0,.719-5.335A16.941,16.941,0,0,0,390.456,1158.286Zm-7.484,13.594q-.848,2.584-2.728,2.583a2.114,2.114,0,0,1-1.641-.961,8.4,8.4,0,0,1-1.29-2.621,23.325,23.325,0,0,1-.848-3.865,33.077,33.077,0,0,1-.313-4.657,30.514,30.514,0,0,1,.313-4.789,13.685,13.685,0,0,1,.811-3.092,4.025,4.025,0,0,1,1.143-1.659,2.151,2.151,0,0,1,1.309-.49,2.2,2.2,0,0,1,1.715.905,7.69,7.69,0,0,1,1.29,2.546,20.929,20.929,0,0,1,.811,3.883,40.436,40.436,0,0,1,.276,4.921A24.464,24.464,0,0,1,382.971,1171.879Z" transform="translate(-216.756 -1133.971)" fill="#1b406d"/>
    <path id="Caminho_1205" data-name="Caminho 1205" d="M170.613,1156.847a5.422,5.422,0,0,0-1.512-2.151,7.057,7.057,0,0,0-2.654-1.4,13.619,13.619,0,0,0-3.908-.491H150.558v1.245l2.1.227v20.495l-2.139.944v1.057h12.018v-1.17l-2.986-.113v-8.3a4.815,4.815,0,0,0,.958.283,6.407,6.407,0,0,0,1.327.132,13.846,13.846,0,0,0,3.263-.4,8.526,8.526,0,0,0,2.968-1.34,7.358,7.358,0,0,0,2.175-2.472,7.825,7.825,0,0,0,.848-3.831A7.509,7.509,0,0,0,170.613,1156.847Zm-7,7.719a2.993,2.993,0,0,1-2.691,1.453,2.313,2.313,0,0,1-.7-.132,3.437,3.437,0,0,1-.664-.283V1154.13h1.106a3.141,3.141,0,0,1,2.968,1.6,8.282,8.282,0,0,1,.9,4.1A9.193,9.193,0,0,1,163.608,1164.567Z" transform="translate(-61.479 -1135.293)" fill="#1b406d"/>
    <path id="Caminho_1206" data-name="Caminho 1206" d="M246.8,1158.286a10.517,10.517,0,0,0-1.954-3.808,9.29,9.29,0,0,0-3.392-2.564,11.935,11.935,0,0,0-4.977-.943,12.1,12.1,0,0,0-4.461.811,9.66,9.66,0,0,0-3.576,2.432,11.344,11.344,0,0,0-2.36,4.035,16.809,16.809,0,0,0-.848,5.58,16.056,16.056,0,0,0,.737,5.035,10.746,10.746,0,0,0,2.139,3.827,9.353,9.353,0,0,0,3.392,2.432,11.361,11.361,0,0,0,4.5.849,12.355,12.355,0,0,0,5.014-.943,9.607,9.607,0,0,0,3.557-2.64,11.4,11.4,0,0,0,2.139-4.091,18.52,18.52,0,0,0,.719-5.335A16.909,16.909,0,0,0,246.8,1158.286Zm-7.484,13.594q-.849,2.584-2.728,2.583a2.114,2.114,0,0,1-1.641-.961,8.408,8.408,0,0,1-1.29-2.621,23.35,23.35,0,0,1-.848-3.865,33.034,33.034,0,0,1-.313-4.657,30.479,30.479,0,0,1,.313-4.789,13.687,13.687,0,0,1,.811-3.092,4.02,4.02,0,0,1,1.143-1.659,2.15,2.15,0,0,1,1.309-.49,2.2,2.2,0,0,1,1.714.905,7.685,7.685,0,0,1,1.29,2.546,20.905,20.905,0,0,1,.811,3.883,40.372,40.372,0,0,1,.277,4.921A24.462,24.462,0,0,1,239.317,1171.879Z" transform="translate(-114.598 -1133.971)" fill="#1b406d"/>
    <path id="Caminho_1207" data-name="Caminho 1207" d="M311.181,1173.755l-5.419-19.625,4.276-.113v-1.208H297.061v1.132l1.659,1.171,6.009,21.776h7.115Z" transform="translate(-165.827 -1135.293)" fill="#1b406d"/>
  </g>
</svg>
